<?xml version="1.0" encoding="utf-8"?>
<!-- Generator: Adobe Illustrator 28.1.0, SVG Export Plug-In . SVG Version: 6.00 Build 0)  -->
<svg version="1.1" id="图层_1" xmlns="http://www.w3.org/2000/svg" xmlns:xlink="http://www.w3.org/1999/xlink" x="0px" y="0px"
	 viewBox="0 0 550 200" style="enable-background:new 0 0 550 200;" xml:space="preserve">
<style type="text/css">
	.st0{fill:#F04C7C;}
	.st1{fill:#FFFFFF;}
	.st2{fill:#1CCCA9;}
</style>
<g>
	<path class="st0" d="M496.41,28.94H179.06l-12.98-13.32H55.96L0,73.35l110.13,111.03l22.34-22.21l363.94-0.13
		c28.37,0.37,51.64-27.9,53.48-61.74C551.89,63.2,527.65,28.75,496.41,28.94z M18.65,73.35l44.4-44.42h93.25l44.4,44.4l-90.59,90.59
		L18.65,73.35z"/>
	<path class="st1" d="M417,80.36c-1.25,9.51-5.31,17.23-12.17,23.16c-6.59,5.62-14.21,8.42-22.85,8.42H349.2l-2.78,21.17h-19.5
		l5.64-42.91h54.16c2.66,0,5.04-0.91,7.11-2.72c2.07-1.81,3.3-4.23,3.69-7.22c0.39-3-0.21-5.36-1.81-7.1
		c-1.6-1.73-3.73-2.61-6.41-2.61h-54.14l15.74-21.75h39.44c8.59,0,15.45,2.8,20.57,8.42C416.21,63.13,418.26,70.85,417,80.36
		L417,80.36z M296.76,133.09l11.07-84.31h19.5l-11.07,84.32L296.76,133.09z M246.86,134.38c-3.15,0-5.88-3.19-8.19-9.59l-27.38-76
		h21.18l18.54,52.16l30.68-52.16h21.33l-45.77,76.13C253.47,131.23,250.01,134.39,246.86,134.38L246.86,134.38z"/>
	<path class="st1" d="M502.09,135.4h-73.38v-7.97h54.8V95.57h-45.86V87.6h45.86v-32.1h-54.8v-7.97h73.38L502.09,135.4L502.09,135.4z
		"/>
	<path class="st2" d="M127.4,45.22c-1.17,0-2.25,0.63-2.84,1.64l-12.26,21.02c-0.96,1.6-3.04,2.1-4.64,1.14
		c-0.47-0.29-0.86-0.68-1.14-1.14l-12.2-21.02c-0.61-1.02-1.7-1.64-2.88-1.64H79.09c-0.7-0.02-1.3,0.53-1.33,1.23
		c-0.01,0.26,0.06,0.53,0.21,0.75l19.85,34.08c0.72,1.71-0.07,3.69-1.78,4.42c-1.41,0.61-3.07,0.17-4-1.06l-22-37.72
		c-0.63-1.1-1.83-1.76-3.09-1.7h-7.5c-1.83-0.01-3.32,1.46-3.33,3.28c0,0.59,0.15,1.16,0.44,1.67l40.06,68.74
		c0.32,0.63,1.09,0.9,1.72,0.57c0.25-0.13,0.45-0.32,0.57-0.57l33.06-56.8c0.98-1.56,3.03-2.03,4.58-1.07
		c1.48,0.92,2,2.83,1.19,4.38l-35.07,60.44c-0.6,1.02-0.6,2.29,0,3.31l4.17,7.14c0.96,1.6,3.04,2.1,4.64,1.14
		c0.47-0.29,0.86-0.68,1.14-1.14l50.18-86.13c0.91-1.59,0.37-3.61-1.22-4.51c-0.51-0.29-1.08-0.45-1.67-0.44H127.4L127.4,45.22
		L127.4,45.22z"/>
</g>
</svg>
