<?xml version="1.0" encoding="utf-8"?>
<!-- Generator: Adobe Illustrator 28.1.0, SVG Export Plug-In . SVG Version: 6.00 Build 0)  -->
<svg version="1.1" id="图层_1" xmlns="http://www.w3.org/2000/svg" xmlns:xlink="http://www.w3.org/1999/xlink" x="0px" y="0px"
	 viewBox="0 0 550 200" style="enable-background:new 0 0 550 200;" xml:space="preserve">
<style type="text/css">
	.st0{fill:#9EC4F6;}
	.st1{fill:#FFFFFF;}
	.st2{fill:#A4D8E4;}
	.st3{fill:#95D3E8;}
	.st4{fill:#B5D3D8;}
	.st5{fill:#85C6D8;}
	.st6{fill:#F7F7F7;}
</style>
<g>
	<path class="st0" d="M496.41,28.94H179.06l-12.98-13.32H55.96L0,73.35l110.13,111.03l22.34-22.21l363.94-0.13
		c28.37,0.37,51.64-27.9,53.48-61.74C551.89,63.21,527.65,28.76,496.41,28.94z M18.65,73.34l44.4-44.4h93.25l44.4,44.4l-90.59,90.59
		L18.65,73.34z"/>
	<path class="st1" d="M417.06,80.35c-1.25,9.51-5.31,17.23-12.17,23.16c-6.59,5.62-14.21,8.42-22.85,8.42h-32.78l-2.78,21.17h-19.5
		l5.64-42.91h54.16c2.66,0,5.04-0.91,7.11-2.72s3.3-4.23,3.69-7.22c0.39-3-0.21-5.36-1.81-7.1s-3.73-2.61-6.41-2.61H335.2
		l15.74-21.75h39.44c8.59,0,15.45,2.8,20.57,8.42C416.27,63.12,418.31,70.84,417.06,80.35z M296.82,133.07l11.07-84.31h19.5
		l-11.07,84.32L296.82,133.07z M246.92,134.37c-3.15,0-5.88-3.19-8.19-9.59l-27.38-76h21.18l18.54,52.16l30.68-52.16h21.33
		l-45.77,76.13C253.53,131.21,250.07,134.37,246.92,134.37L246.92,134.37z"/>
	<path class="st1" d="M432.98,135.61h-4.82V87.33h54.8V55.7h-53.82v-7.97h72.42v47.55h-54.8v32.34h54.8v7.97L432.98,135.61z"/>
	<path class="st2" d="M135.51,75.17l-25.45-33.79L84.83,75.36L59.11,52.49l13.15,71.25h75.62l13.15-71.25L135.51,75.17z"/>
	<path class="st3" d="M135.51,75.17l-25.45-33.79l-0.05,0.05v82.31h37.87l13.15-71.25L135.51,75.17z"/>
	<path class="st4" d="M68.43,103.06l9.44-16.13L59.11,52.49L68.43,103.06z"/>
	<path class="st5" d="M84.83,75.35l-6.96,11.57L59.11,52.49L84.83,75.35z"/>
	<path class="st4" d="M142.61,86.92l9.1,16.13l9.33-50.57L142.61,86.92z"/>
	<path class="st5" d="M135.51,75.17l7.08,11.75l18.42-34.43L135.51,75.17z"/>
	<path class="st6" d="M105.01,78.24c0,3.76,0.94,7.21,2.48,9.09c1.54,1.88,3.42,1.87,4.96,0c1.54-1.87,2.48-5.34,2.48-9.09
		c0-3.74-0.94-7.21-2.48-9.09c-1.54-1.88-3.43-1.87-4.96,0C105.96,71.03,105.01,74.48,105.01,78.24z"/>
	<path class="st1" d="M105.52,73.91c0,1.3,1.06,2.35,2.35,2.35c1.3,0,2.35-1.06,2.35-2.35s-1.06-2.35-2.35-2.35l0,0
		C106.58,71.57,105.52,72.6,105.52,73.91z"/>
</g>
</svg>
