<?xml version="1.0" encoding="utf-8"?>
<!-- Generator: Adobe Illustrator 28.1.0, SVG Export Plug-In . SVG Version: 6.00 Build 0)  -->
<svg version="1.1" id="图层_1" xmlns="http://www.w3.org/2000/svg" xmlns:xlink="http://www.w3.org/1999/xlink" x="0px" y="0px"
	 viewBox="0 0 550 200" style="enable-background:new 0 0 550 200;" xml:space="preserve">
<style type="text/css">
	.st0{fill:#FDEDD4;}
	.st1{fill:#7B9D9F;}
	.st2{fill:#BABCAF;}
	.st3{fill:#95A098;}
</style>
<g>
	<path class="st0" d="M496.41,28.94H179.07l-12.98-13.32H55.95L0,73.35l110.14,111.04l22.34-22.23l363.93-0.11
		c28.37,0.37,51.65-27.9,53.47-61.73C551.89,63.19,527.65,28.74,496.41,28.94z M18.65,73.35l44.4-44.4h93.26l44.4,44.4l-90.59,90.59
		L18.65,73.35z"/>
	<path class="st1" d="M417.03,80.35c-1.25,9.51-5.32,17.23-12.17,23.16c-6.59,5.62-14.2,8.42-22.85,8.42h-32.77l-2.78,21.17h-19.51
		l5.64-42.91h54.15c2.67,0,5.05-0.89,7.1-2.71c2.06-1.82,3.3-4.22,3.69-7.23c0.4-2.99-0.21-5.37-1.82-7.09
		c-1.6-1.74-3.73-2.61-6.4-2.61h-54.16l15.72-21.75h39.44c8.59,0,15.44,2.81,20.57,8.42C416.21,63.12,418.25,70.84,417.03,80.35z
		 M296.77,133.09l11.07-84.31h19.51l-11.07,84.32L296.77,133.09z M246.87,134.36c-3.15,0-5.89-3.2-8.19-9.59L211.3,48.78h21.18
		l18.53,52.17l30.68-52.17h21.33l-45.77,76.13C253.47,131.21,250.01,134.36,246.87,134.36L246.87,134.36z"/>
	<path class="st2" d="M62.33,72.51l33.25-4.77l14.96-30.12l14.82,30.16l33.23,4.91l-24.12,23.38l5.64,33.15l-29.7-15.71
		l-29.78,15.59l5.7-33.08L62.33,72.51z"/>
	<path class="st3" d="M134.47,96.09l5.64,33.15l-29.65-41.01L95.58,67.74l14.96-30.12l-0.11,75.93l-29.79,15.59l44.73-61.33
		l33.23,4.91L86.33,96.05L62.34,72.51"/>
	<path class="st1" d="M474.58,132.63h-17.9V55.98h-12.86v-7.63h30.75L474.58,132.63z"/>
</g>
</svg>
